# xmcd
# 
# Track frame offsets:
#     150
#     13887
#     25620
#     34085
#     52397
#     64087
#     82767
#     120737
#     131900
#     145972
#     155322
#     169807
#     179515
#     189830
#     203112
#     212727
#     226805
#     238635
#     250915
#     263412
#     274110
#     286972
#     299117
# 
# Disc length: 4128
# 
# Revision: 9
# Processed by: cddbd v1.5.2PL0 Copyright (c) Steve Scherf et al.
# Submitted via: fre:ac v1.0.31
# 
DISCID=4f101e17,54101e17
DTITLE=Johnny Cash - The Essential Johnny Cash 1955-1983  Disc 2
DYEAR=1993
DGENRE=Country
TTITLE0=Don't Take Your Guns To Town
TTITLE1=The Ballad Of Boot Hill
TTITLE2=The Rebel - Johnny Yuma
TTITLE3=The Big Battle
TTITLE4=When The Roses Bloom Again
TTITLE5=The Ballad Of Ira Hayes
TTITLE6=The Legend Of John Henry's Hammer
TTITLE7=Dark As A Dungeon
TTITLE8=The Long Black Veil
TTITLE9=I Got Stripes
TTITLE10=25 Minutes To Go
TTITLE11=The Wall
TTITLE12=Busted
TTITLE13=Bad News
TTITLE14=Dirty Old Egg-Sucking Dog
TTITLE15=Orange Blossom Special
TTITLE16=Ring Of Fire
TTITLE17=Understand Your Man
TTITLE18=Jackson
TTITLE19=Blistered
TTITLE20=See Ruby Fall
TTITLE21=Cicso Clifton's Fillin' Station
TTITLE22=Daddy Sang Bass
EXTD=Colombia/Legacy - C3K 47991\nDisk 2 of 3 YEAR: 1998
EXTT0=
EXTT1=
EXTT2=
EXTT3=
EXTT4=
EXTT5=
EXTT6=
EXTT7=
EXTT8=
EXTT9=
EXTT10=
EXTT11=
EXTT12=
EXTT13=
EXTT14=
EXTT15=
EXTT16=
EXTT17=
EXTT18=
EXTT19=
EXTT20=
EXTT21=
EXTT22=
PLAYORDER=
